<svg xmlns="http://www.w3.org/2000/svg" xmlns:xlink="http://www.w3.org/1999/xlink" width="64" zoomAndPan="magnify" viewBox="0 0 48 48" height="64" preserveAspectRatio="xMidYMid meet" version="1.2"><defs><clipPath id="bb063fc628"><path d="M 1.519531 1.027344 L 45.601562 1.027344 L 45.601562 45.109375 L 1.519531 45.109375 Z M 1.519531 1.027344 "/></clipPath><clipPath id="e4e38eab79"><path d="M 2 1.027344 L 45 1.027344 L 45 24 L 2 24 Z M 2 1.027344 "/></clipPath></defs><g id="6926c4fbf1"><g clip-rule="nonzero" clip-path="url(#bb063fc628)"><path style=" stroke:none;fill-rule:evenodd;fill:#ef4136;fill-opacity:1;" d="M 23.554688 1.027344 C 24.277344 1.027344 24.996094 1.0625 25.714844 1.132812 C 26.433594 1.207031 27.148438 1.3125 27.855469 1.453125 C 28.5625 1.59375 29.261719 1.769531 29.953125 1.976562 C 30.644531 2.1875 31.320312 2.429688 31.988281 2.707031 C 32.65625 2.980469 33.308594 3.289062 33.945312 3.628906 C 34.582031 3.972656 35.199219 4.339844 35.796875 4.742188 C 36.398438 5.144531 36.976562 5.574219 37.535156 6.03125 C 38.09375 6.488281 38.628906 6.972656 39.136719 7.484375 C 39.648438 7.992188 40.132812 8.527344 40.589844 9.085938 C 41.046875 9.644531 41.476562 10.222656 41.878906 10.824219 C 42.28125 11.421875 42.652344 12.039062 42.992188 12.675781 C 43.332031 13.3125 43.640625 13.964844 43.914062 14.632812 C 44.191406 15.300781 44.433594 15.976562 44.644531 16.667969 C 44.851562 17.359375 45.027344 18.058594 45.167969 18.765625 C 45.308594 19.472656 45.414062 20.1875 45.488281 20.90625 C 45.558594 21.625 45.59375 22.34375 45.59375 23.066406 C 45.59375 23.789062 45.558594 24.507812 45.488281 25.226562 C 45.414062 25.945312 45.308594 26.65625 45.167969 27.363281 C 45.027344 28.074219 44.851562 28.773438 44.644531 29.460938 C 44.433594 30.152344 44.191406 30.832031 43.914062 31.5 C 43.640625 32.164062 43.332031 32.816406 42.992188 33.453125 C 42.652344 34.089844 42.28125 34.707031 41.878906 35.308594 C 41.476562 35.910156 41.046875 36.488281 40.589844 37.046875 C 40.132812 37.605469 39.648438 38.136719 39.136719 38.648438 C 38.628906 39.160156 38.09375 39.644531 37.535156 40.101562 C 36.976562 40.558594 36.398438 40.988281 35.796875 41.390625 C 35.199219 41.789062 34.582031 42.160156 33.945312 42.5 C 33.308594 42.839844 32.65625 43.148438 31.988281 43.425781 C 31.320312 43.703125 30.644531 43.945312 29.953125 44.152344 C 29.261719 44.363281 28.5625 44.539062 27.855469 44.679688 C 27.148438 44.820312 26.433594 44.925781 25.714844 44.996094 C 24.996094 45.066406 24.277344 45.101562 23.554688 45.101562 C 22.832031 45.101562 22.113281 45.066406 21.394531 44.996094 C 20.675781 44.925781 19.964844 44.820312 19.257812 44.679688 C 18.546875 44.539062 17.847656 44.363281 17.160156 44.152344 C 16.46875 43.945312 15.789062 43.703125 15.121094 43.425781 C 14.457031 43.148438 13.804688 42.839844 13.167969 42.5 C 12.53125 42.160156 11.914062 41.789062 11.3125 41.390625 C 10.710938 40.988281 10.132812 40.558594 9.574219 40.101562 C 9.015625 39.644531 8.484375 39.160156 7.972656 38.648438 C 7.460938 38.136719 6.976562 37.605469 6.519531 37.046875 C 6.0625 36.488281 5.632812 35.910156 5.230469 35.308594 C 4.832031 34.707031 4.460938 34.089844 4.121094 33.453125 C 3.78125 32.816406 3.472656 32.164062 3.195312 31.5 C 2.917969 30.832031 2.675781 30.152344 2.46875 29.460938 C 2.257812 28.773438 2.082031 28.074219 1.941406 27.363281 C 1.800781 26.65625 1.695312 25.945312 1.625 25.226562 C 1.554688 24.507812 1.519531 23.789062 1.519531 23.066406 C 1.519531 22.34375 1.554688 21.625 1.625 20.90625 C 1.695312 20.1875 1.800781 19.472656 1.941406 18.765625 C 2.082031 18.058594 2.257812 17.359375 2.46875 16.667969 C 2.675781 15.976562 2.917969 15.300781 3.195312 14.632812 C 3.472656 13.964844 3.78125 13.3125 4.121094 12.675781 C 4.460938 12.039062 4.832031 11.421875 5.230469 10.824219 C 5.632812 10.222656 6.0625 9.644531 6.519531 9.085938 C 6.976562 8.527344 7.460938 7.992188 7.972656 7.484375 C 8.484375 6.972656 9.015625 6.488281 9.574219 6.03125 C 10.132812 5.574219 10.710938 5.144531 11.3125 4.742188 C 11.914062 4.339844 12.53125 3.972656 13.167969 3.628906 C 13.804688 3.289062 14.457031 2.980469 15.121094 2.707031 C 15.789062 2.429688 16.46875 2.1875 17.160156 1.976562 C 17.847656 1.769531 18.546875 1.59375 19.257812 1.453125 C 19.964844 1.3125 20.675781 1.207031 21.394531 1.132812 C 22.113281 1.0625 22.832031 1.027344 23.554688 1.027344 Z M 23.554688 1.027344 "/></g><g clip-rule="nonzero" clip-path="url(#e4e38eab79)"><path style=" stroke:none;fill-rule:evenodd;fill:#ff7c73;fill-opacity:1;" d="M 23.554688 1.835938 C 24.25 1.835938 24.945312 1.871094 25.636719 1.9375 C 26.328125 2.007812 27.011719 2.109375 27.695312 2.242188 C 28.375 2.378906 29.050781 2.546875 29.714844 2.75 C 30.378906 2.949219 31.03125 3.183594 31.675781 3.449219 C 32.316406 3.714844 32.945312 4.011719 33.558594 4.339844 C 34.167969 4.667969 34.765625 5.023438 35.34375 5.410156 C 35.921875 5.796875 36.476562 6.210938 37.015625 6.652344 C 37.550781 7.09375 38.066406 7.558594 38.558594 8.050781 C 39.046875 8.539062 39.515625 9.054688 39.957031 9.59375 C 40.394531 10.128906 40.808594 10.6875 41.195312 11.265625 C 41.582031 11.84375 41.9375 12.4375 42.265625 13.050781 C 42.59375 13.664062 42.890625 14.289062 43.15625 14.933594 C 43.421875 15.574219 43.65625 16.226562 43.859375 16.894531 C 44.058594 17.558594 44.226562 18.230469 44.363281 18.914062 C 44.5 19.59375 44.601562 20.28125 44.667969 20.972656 C 44.738281 21.664062 44.769531 22.355469 44.769531 23.050781 C 44.769531 23.328125 44.769531 23.605469 44.769531 23.875 C 44.746094 23.199219 44.6875 22.523438 44.597656 21.851562 C 44.507812 21.179688 44.386719 20.511719 44.234375 19.851562 C 44.082031 19.191406 43.894531 18.539062 43.679688 17.894531 C 43.464844 17.253906 43.214844 16.621094 42.941406 16 C 42.664062 15.382812 42.355469 14.777344 42.023438 14.1875 C 41.6875 13.597656 41.324219 13.023438 40.933594 12.46875 C 40.546875 11.914062 40.128906 11.378906 39.6875 10.863281 C 39.246094 10.347656 38.78125 9.855469 38.292969 9.382812 C 37.804688 8.914062 37.296875 8.464844 36.765625 8.042969 C 36.234375 7.621094 35.683594 7.226562 35.113281 6.859375 C 34.542969 6.488281 33.960938 6.148438 33.355469 5.835938 C 32.753906 5.523438 32.140625 5.238281 31.511719 4.984375 C 30.882812 4.730469 30.242188 4.507812 29.589844 4.316406 C 28.941406 4.125 28.28125 3.960938 27.617188 3.832031 C 26.949219 3.703125 26.28125 3.605469 25.605469 3.542969 C 24.929688 3.476562 24.253906 3.445312 23.574219 3.445312 C 22.894531 3.445312 22.21875 3.476562 21.542969 3.542969 C 20.867188 3.605469 20.195312 3.703125 19.53125 3.832031 C 18.863281 3.960938 18.207031 4.125 17.554688 4.316406 C 16.90625 4.507812 16.265625 4.730469 15.636719 4.984375 C 15.007812 5.238281 14.390625 5.523438 13.789062 5.835938 C 13.1875 6.148438 12.601562 6.488281 12.03125 6.859375 C 11.464844 7.226562 10.914062 7.621094 10.382812 8.042969 C 9.851562 8.464844 9.339844 8.914062 8.851562 9.382812 C 8.363281 9.855469 7.898438 10.347656 7.457031 10.863281 C 7.015625 11.378906 6.601562 11.914062 6.210938 12.46875 C 5.820312 13.023438 5.460938 13.597656 5.125 14.1875 C 4.789062 14.777344 4.484375 15.382812 4.207031 16 C 3.929688 16.621094 3.683594 17.253906 3.46875 17.894531 C 3.25 18.539062 3.066406 19.191406 2.914062 19.851562 C 2.757812 20.511719 2.636719 21.179688 2.546875 21.851562 C 2.457031 22.523438 2.402344 23.199219 2.375 23.875 C 2.375 23.605469 2.375 23.328125 2.375 23.050781 C 2.375 22.355469 2.410156 21.664062 2.476562 20.972656 C 2.546875 20.285156 2.648438 19.597656 2.78125 18.917969 C 2.917969 18.234375 3.085938 17.5625 3.289062 16.898438 C 3.488281 16.234375 3.722656 15.582031 3.988281 14.941406 C 4.253906 14.300781 4.546875 13.671875 4.875 13.058594 C 5.203125 12.449219 5.558594 11.851562 5.945312 11.277344 C 6.328125 10.699219 6.742188 10.140625 7.179688 9.605469 C 7.621094 9.066406 8.085938 8.554688 8.578125 8.0625 C 9.066406 7.570312 9.582031 7.105469 10.117188 6.664062 C 10.652344 6.222656 11.210938 5.808594 11.785156 5.421875 C 12.363281 5.039062 12.957031 4.679688 13.570312 4.351562 C 14.179688 4.023438 14.808594 3.726562 15.449219 3.460938 C 16.089844 3.195312 16.742188 2.960938 17.40625 2.757812 C 18.070312 2.554688 18.742188 2.386719 19.421875 2.25 C 20.101562 2.113281 20.789062 2.011719 21.476562 1.941406 C 22.167969 1.871094 22.863281 1.835938 23.554688 1.835938 Z M 23.554688 1.835938 "/></g><path style=" stroke:none;fill-rule:nonzero;fill:#ffffff;fill-opacity:1;" d="M 30.570312 17.078125 C 30.351562 16.824219 30.1875 16.539062 30.082031 16.21875 C 29.976562 15.898438 29.933594 15.570312 29.960938 15.234375 C 29.984375 14.898438 30.070312 14.582031 30.222656 14.28125 C 30.375 13.980469 30.578125 13.71875 30.832031 13.496094 C 31.085938 13.277344 31.371094 13.113281 31.691406 13.007812 C 32.011719 12.902344 32.339844 12.859375 32.675781 12.882812 C 33.011719 12.910156 33.328125 12.996094 33.628906 13.148438 C 33.929688 13.296875 34.191406 13.5 34.414062 13.753906 C 35.007812 14.441406 35.53125 15.183594 35.988281 15.96875 C 36.441406 16.757812 36.816406 17.582031 37.113281 18.445312 C 37.414062 19.304688 37.625 20.183594 37.757812 21.085938 C 37.886719 21.984375 37.929688 22.890625 37.886719 23.800781 C 37.84375 24.710938 37.71875 25.605469 37.503906 26.492188 C 37.292969 27.375 36.996094 28.234375 36.621094 29.0625 C 36.246094 29.890625 35.792969 30.675781 35.269531 31.417969 C 34.742188 32.164062 34.152344 32.847656 33.496094 33.480469 C 32.839844 34.109375 32.128906 34.671875 31.367188 35.167969 C 30.601562 35.664062 29.800781 36.082031 28.957031 36.425781 C 28.113281 36.769531 27.246094 37.027344 26.351562 37.207031 C 25.460938 37.382812 24.558594 37.476562 23.648438 37.480469 C 22.738281 37.488281 21.835938 37.40625 20.941406 37.242188 C 20.046875 37.074219 19.175781 36.824219 18.328125 36.492188 C 17.480469 36.164062 16.671875 35.753906 15.902344 35.269531 C 15.132812 34.78125 14.414062 34.226562 13.75 33.605469 C 13.085938 32.984375 12.484375 32.304688 11.949219 31.570312 C 11.414062 30.832031 10.953125 30.050781 10.566406 29.230469 C 10.179688 28.40625 9.875 27.550781 9.652344 26.667969 C 9.425781 25.789062 9.289062 24.890625 9.234375 23.984375 C 9.179688 23.074219 9.210938 22.167969 9.332031 21.265625 C 9.449219 20.363281 9.652344 19.480469 9.9375 18.617188 C 10.226562 17.753906 10.589844 16.925781 11.035156 16.128906 C 11.480469 15.335938 11.992188 14.589844 12.578125 13.894531 C 12.796875 13.636719 13.054688 13.429688 13.355469 13.277344 C 13.652344 13.121094 13.972656 13.03125 14.304688 13 C 14.640625 12.972656 14.96875 13.011719 15.292969 13.113281 C 15.613281 13.214844 15.902344 13.375 16.160156 13.589844 C 16.417969 13.808594 16.621094 14.066406 16.777344 14.363281 C 16.933594 14.664062 17.023438 14.980469 17.050781 15.316406 C 17.082031 15.652344 17.042969 15.980469 16.941406 16.300781 C 16.839844 16.621094 16.679688 16.910156 16.464844 17.167969 C 16.085938 17.617188 15.753906 18.101562 15.464844 18.613281 C 15.179688 19.128906 14.941406 19.664062 14.757812 20.222656 C 14.570312 20.78125 14.441406 21.351562 14.363281 21.933594 C 14.285156 22.515625 14.265625 23.101562 14.300781 23.6875 C 14.335938 24.277344 14.425781 24.855469 14.570312 25.425781 C 14.714844 25.996094 14.910156 26.546875 15.160156 27.078125 C 15.410156 27.613281 15.710938 28.117188 16.054688 28.59375 C 16.402344 29.066406 16.789062 29.507812 17.21875 29.910156 C 17.648438 30.3125 18.109375 30.667969 18.609375 30.984375 C 19.105469 31.296875 19.628906 31.5625 20.175781 31.777344 C 20.722656 31.988281 21.285156 32.152344 21.863281 32.257812 C 22.445312 32.367188 23.027344 32.417969 23.613281 32.414062 C 24.203125 32.410156 24.785156 32.351562 25.363281 32.234375 C 25.941406 32.121094 26.5 31.953125 27.046875 31.730469 C 27.589844 31.511719 28.109375 31.238281 28.601562 30.917969 C 29.097656 30.597656 29.554688 30.234375 29.980469 29.828125 C 30.402344 29.421875 30.785156 28.976562 31.125 28.496094 C 31.464844 28.015625 31.757812 27.507812 32 26.972656 C 32.242188 26.4375 32.433594 25.882812 32.570312 25.3125 C 32.707031 24.738281 32.789062 24.160156 32.816406 23.570312 C 32.84375 22.984375 32.816406 22.398438 32.734375 21.816406 C 32.648438 21.234375 32.511719 20.664062 32.316406 20.109375 C 32.125 19.554688 31.882812 19.019531 31.589844 18.511719 C 31.296875 18 30.957031 17.523438 30.570312 17.078125 Z M 26.101562 18.214844 C 26.101562 18.554688 26.039062 18.878906 25.910156 19.191406 C 25.777344 19.503906 25.59375 19.777344 25.355469 20.015625 C 25.117188 20.257812 24.84375 20.441406 24.53125 20.570312 C 24.21875 20.699219 23.894531 20.761719 23.554688 20.761719 C 23.21875 20.761719 22.894531 20.699219 22.582031 20.570312 C 22.269531 20.441406 21.992188 20.257812 21.753906 20.015625 C 21.515625 19.777344 21.332031 19.503906 21.203125 19.191406 C 21.074219 18.878906 21.007812 18.554688 21.007812 18.214844 L 21.007812 10.621094 C 21.007812 10.28125 21.074219 9.957031 21.203125 9.644531 C 21.332031 9.332031 21.515625 9.058594 21.753906 8.820312 C 21.992188 8.582031 22.269531 8.394531 22.582031 8.265625 C 22.894531 8.136719 23.21875 8.074219 23.554688 8.074219 C 23.894531 8.074219 24.21875 8.136719 24.53125 8.265625 C 24.84375 8.394531 25.117188 8.582031 25.355469 8.820312 C 25.59375 9.058594 25.777344 9.332031 25.910156 9.644531 C 26.039062 9.957031 26.101562 10.28125 26.101562 10.621094 Z M 26.101562 18.214844 "/><g style="fill:#ef4136;fill-opacity:1;"><g transform="translate(20.730611, 26.448981)"><path style="stroke:none" d="M 1.078125 0 L 1.078125 -1.25 L 2.1875 -1.25 L 2.1875 0 Z M 1.078125 0 "/></g><g transform="translate(23.996555, 26.448981)"><path style="stroke:none" d="M 1.078125 0 L 1.078125 -1.25 L 2.1875 -1.25 L 2.1875 0 Z M 1.078125 0 "/></g></g></g></svg>